<?xml version="1.0" encoding="UTF-8" standalone="no"?>
<!-- Created with Inkscape (http://www.inkscape.org/) -->

<svg
   xmlns:dc="http://purl.org/dc/elements/1.1/"
   xmlns:cc="http://creativecommons.org/ns#"
   xmlns:rdf="http://www.w3.org/1999/02/22-rdf-syntax-ns#"
   xmlns:svg="http://www.w3.org/2000/svg"
   xmlns="http://www.w3.org/2000/svg"
   xmlns:sodipodi="http://sodipodi.sourceforge.net/DTD/sodipodi-0.dtd"
   xmlns:inkscape="http://www.inkscape.org/namespaces/inkscape"
   width="892.59235"
   height="567.63013"
   viewBox="0 0 892.59233 567.63013"
   id="svg2"
   version="1.1"
   inkscape:version="0.91 r13725"
   sodipodi:docname="logotipoElferNuevo.svg"
   inkscape:export-filename="C:\Users\Sergio Tafoya\Dropbox\SolucionesInnova\industriaselfer\web\img\logotipoElferNuevo.png"
   inkscape:export-xdpi="90"
   inkscape:export-ydpi="90">
  <defs
     id="defs4" />
  <sodipodi:namedview
     id="base"
     pagecolor="#ffffff"
     bordercolor="#666666"
     borderopacity="1.0"
     inkscape:pageopacity="0.0"
     inkscape:pageshadow="2"
     inkscape:zoom="1"
     inkscape:cx="435.79996"
     inkscape:cy="218.10307"
     inkscape:document-units="px"
     inkscape:current-layer="layer1"
     showgrid="false"
     showborder="true"
     fit-margin-top="30"
     fit-margin-left="0"
     fit-margin-right="0"
     fit-margin-bottom="0.9"
     inkscape:window-width="1920"
     inkscape:window-height="1017"
     inkscape:window-x="1272"
     inkscape:window-y="-8"
     inkscape:window-maximized="1"
     showguides="false"
     units="px" />
  <metadata
     id="metadata7">
    <rdf:RDF>
      <cc:Work
         rdf:about="">
        <dc:format>image/svg+xml</dc:format>
        <dc:type
           rdf:resource="http://purl.org/dc/dcmitype/StillImage" />
        <dc:title></dc:title>
      </cc:Work>
    </rdf:RDF>
  </metadata>
  <g
     inkscape:label="Capa 1"
     inkscape:groupmode="layer"
     id="layer1"
     transform="translate(502.82981,-272.78768)">
    <path
       style="fill:#f5811e;fill-opacity:1;fill-rule:evenodd;stroke:none;stroke-width:1px;stroke-linecap:butt;stroke-linejoin:miter;stroke-opacity:1"
       d="m -149,314.3622 -352.2253,432.24507 700.79209,0.1412 z"
       id="path4151"
       inkscape:connector-curvature="0"
       sodipodi:nodetypes="cccc" />
    <path
       style="fill:#f5811e;fill-opacity:1;fill-rule:evenodd;stroke:none;stroke-width:1px;stroke-linecap:butt;stroke-linejoin:miter;stroke-opacity:1"
       d="M -132.44194,302.78768 220.12132,736.3622 389.76256,569.47832 Z"
       id="path4153"
       inkscape:connector-curvature="0"
       sodipodi:nodetypes="cccc" />
    <path
       style="fill:#ffffff"
       d="m -93.829127,713.95541 c -9.519913,-2.6796 -14.571143,-6.3165 -19.663863,-14.1577 -3.74272,-5.7626 -5.57789,-13.3836 -5.62435,-23.3565 -0.0831,-17.8299 5.98013,-32.8049 18.16301,-44.8592 13.277053,-13.137 36.518893,-17.6855 51.344284,-10.0483 9.50044,4.8941 13.65439,11.5946 14.34375,23.1372 0.41122,6.8854 0.16911,8.3275 -2.21676,13.2041 -5.99572,12.2548 -18.75337,17.9151 -43.326221,19.2229 l -12.25,0.652 0,2.6978 c 0,3.9038 3.912,9.1853 8.5132,11.4935 5.76308,2.8911 18.59299,2.6813 28.374801,-0.464 5.63429,-1.8116 7.4769,-2.0636 8.07026,-1.1035 0.4229,0.6843 1.07017,4.8564 1.43837,9.2714 0.79555,9.5394 0.78895,9.5476 -10.396631,12.8801 -9.71292,2.8938 -28.91654,3.6408 -36.76985,1.4302 z m 24.92903,-58.68 c 8.36673,-2.5067 11.53713,-9.9525 6.32336,-14.8506 -5.05876,-4.7524 -17.45188,-1.8957 -22.80655,5.2572 -2.90055,3.8746 -5.67599,9.1846 -5.67599,10.8593 0,1.468 16.10522,0.5479 22.15918,-1.2659 z m -258.159183,55.6724 c 0,-1.3714 1.09623,-8.2339 2.43607,-15.25 1.33983,-7.0161 3.8453,-20.4066 5.5677,-29.7566 8.78642,-47.6967 11.17401,-60.7575 12.61362,-69 0.86456,-4.95 1.78465,-9.7875 2.04465,-10.75 0.43939,-1.6265 3.07819,-1.75 37.40535,-1.75 34.51322,0 36.93158,0.1147 36.91694,1.75 -0.0229,2.5627 -3.89248,20.4911 -4.56931,21.1706 -0.31741,0.3187 -11.00314,0.8044 -23.74606,1.0794 l -23.16896,0.5 -1.71263,9.5 c -0.94195,5.225 -2.01196,11.1875 -2.37781,13.25 l -0.66518,3.75 21.56879,0 c 11.86284,0 21.81036,0.3909 22.1056,0.8686 0.29524,0.4777 -0.3532,5.5393 -1.44098,11.248 -1.08779,5.7087 -1.97779,10.4842 -1.97779,10.6123 0,0.1281 -10.0125,0.354 -22.25,0.502 l -22.25,0.2691 -2.65431,13 c -1.45987,7.15 -2.69737,14.2375 -2.75,15.75 l -0.0957,2.75 24.5,0 c 13.475,0 24.5,0.228 24.5,0.5066 0,1.9107 -3.14725,20.9227 -3.57927,21.6217 -0.29632,0.4794 -17.61221,0.8717 -38.47975,0.8717 l -37.94098,0 z m 95,-0.3576 c 0,-2.5336 2.54724,-16.7243 15.46379,-86.149 1.89307,-10.175 4.37532,-23.675 5.51611,-30 1.14079,-6.325 2.32275,-12.7375 2.62658,-14.25 l 0.55243,-2.75 12.86153,0 c 7.07384,0 13.05932,0.3375 13.30106,0.75 0.24174,0.4125 -1.7621,12.675 -4.45298,27.25 -2.69088,14.575 -5.98158,32.575 -7.31266,40 -4.28901,23.9248 -11.61637,63.3929 -12.20296,65.7301 -0.55544,2.213 -0.89273,2.2699 -13.46131,2.2699 l -12.89159,0 z m 52.63206,2.0647 c -0.42235,-0.6834 3.83391,-25.6301 10.26779,-60.1813 1.07206,-5.7572 1.73161,-10.8197 1.46566,-11.25 -0.26595,-0.4303 -2.70699,-0.7824 -5.42453,-0.7824 -4.7467,0 -4.93722,-0.1081 -4.84524,-2.75 0.0527,-1.5125 0.84016,-6.125 1.75,-10.25 l 1.65426,-7.5 5.74342,-0.2997 c 5.32544,-0.2779 5.78676,-0.4962 6.3388,-3 3.70746,-16.8152 5.66176,-21.1896 13.01489,-29.1318 7.09037,-7.6585 14.65932,-11.1221 25.79416,-11.8039 10.13802,-0.6207 16.60873,0.8988 16.60873,3.9002 0,1.1482 -0.93501,6.0703 -2.07781,10.938 l -2.07781,8.8503 -5.73434,-0.5994 c -9.36291,-0.9786 -14.59798,2.9332 -17.55967,13.1211 -0.8527,2.9332 -1.55037,5.8263 -1.55037,6.4291 0,0.7038 2.8744,1.0961 8.03138,1.0961 6.28544,0 8.15898,0.3325 8.61833,1.5296 0.32281,0.8412 -0.19714,5.5662 -1.15545,10.5 l -1.74238,8.9704 -8.79307,0 -8.79308,0 -1.01173,4.75 c -1.04618,4.9117 -2.39861,12.1946 -8.82083,47.5 l -3.77451,20.75 -12.72031,0 c -6.99618,0 -12.93901,-0.3538 -13.20629,-0.7863 z m 150.367944,-1.6205 c 0,-1.3238 1.31352,-9.5363 2.91894,-18.25 5.95587,-32.3268 9.01905,-51.1215 9.9804,-61.2367 0.54329,-5.7165 1.38974,-10.7956 1.88101,-11.2868 0.49127,-0.4913 5.5791697,-0.7642 11.3064397,-0.6065 l 10.41321,0.2868 -0.20775,9 c -0.20229,8.7632 -0.16289,8.9342 1.49703,6.5 7.3013303,-10.7071 16.7774103,-17.0046 26.0502693,-17.3122 l 5.66045,-0.1878 -0.18649,3 c -0.10256,1.65 -1.02467,7.5 -2.04911,13 l -1.86264,10 -5.732209,0.718 c -7.64307,0.9573 -11.93431,3.1398 -16.60417,8.4451 -5.6753203,6.4475 -8.5036403,14.6869 -12.5071203,36.4355 -1.96427997,10.6708 -3.80204,20.4139 -4.08389,21.6514 -0.49914,2.1915 -0.85021,2.25 -13.4934197,2.25 l -12.98095,0 z"
       id="path4155"
       inkscape:connector-curvature="0"
       sodipodi:nodetypes="cssssssscsscssscssssssssscsccscsscssssscsscsscscssssscsssssscscssscscsssssscsssscscccsscscssscscssscsscssssscs" />
    <text
       xml:space="preserve"
       style="font-style:italic;font-variant:normal;font-weight:bold;font-stretch:normal;font-size:59.41440582px;line-height:125%;font-family:Nobile;-inkscape-font-specification:'Nobile, Bold Italic';text-align:start;letter-spacing:0px;word-spacing:0px;writing-mode:lr-tb;text-anchor:start;fill:#000000;fill-opacity:1;stroke:none;stroke-width:1px;stroke-linecap:butt;stroke-linejoin:miter;stroke-opacity:1"
       x="-503.87421"
       y="839.0246"
       id="text4148"
       sodipodi:linespacing="125%"><tspan
         sodipodi:role="line"
         id="tspan4150"
         x="-503.87421"
         y="839.0246">Industrias Metálicas Elfer</tspan></text>
  </g>
</svg>
