<?xml version="1.0" encoding="UTF-8" standalone="no"?>
<!-- Created with Inkscape (http://www.inkscape.org/) -->

<svg
   xmlns:dc="http://purl.org/dc/elements/1.1/"
   xmlns:cc="http://creativecommons.org/ns#"
   xmlns:rdf="http://www.w3.org/1999/02/22-rdf-syntax-ns#"
   xmlns:svg="http://www.w3.org/2000/svg"
   xmlns="http://www.w3.org/2000/svg"
   xmlns:sodipodi="http://sodipodi.sourceforge.net/DTD/sodipodi-0.dtd"
   xmlns:inkscape="http://www.inkscape.org/namespaces/inkscape"
   width="3287.0938"
   height="503.96078"
   viewBox="0 0 3287.0937 503.96079"
   id="svg2"
   version="1.1"
   inkscape:version="0.91 r13725"
   sodipodi:docname="logotipoElferNuevo2.svg"
   inkscape:export-filename="C:\Users\Sergio Tafoya\Dropbox\SolucionesInnova\industriaselfer\web\img\logotipoElferNuevo.png"
   inkscape:export-xdpi="90"
   inkscape:export-ydpi="90">
  <defs
     id="defs4" />
  <sodipodi:namedview
     id="base"
     pagecolor="#ffffff"
     bordercolor="#666666"
     borderopacity="1.0"
     inkscape:pageopacity="0.0"
     inkscape:pageshadow="2"
     inkscape:zoom="0.34504998"
     inkscape:cx="2079.1055"
     inkscape:cy="326.32893"
     inkscape:document-units="px"
     inkscape:current-layer="layer1"
     showgrid="false"
     showborder="true"
     fit-margin-top="30"
     fit-margin-left="30"
     fit-margin-right="30"
     fit-margin-bottom="30"
     inkscape:window-width="1920"
     inkscape:window-height="1017"
     inkscape:window-x="1272"
     inkscape:window-y="-8"
     inkscape:window-maximized="1"
     showguides="false"
     units="px" />
  <metadata
     id="metadata7">
    <rdf:RDF>
      <cc:Work
         rdf:about="">
        <dc:format>image/svg+xml</dc:format>
        <dc:type
           rdf:resource="http://purl.org/dc/dcmitype/StillImage" />
        <dc:title></dc:title>
      </cc:Work>
    </rdf:RDF>
  </metadata>
  <g
     inkscape:label="Capa 1"
     inkscape:groupmode="layer"
     id="layer1"
     transform="translate(531.2253,-272.78768)">
    <g
       id="g3528"
       transform="matrix(0.0372076,0,0,0.0372076,1453.1547,1174.1275)">
      <path
         inkscape:connector-curvature="0"
         id="path4151"
         d="m -41621.854,-23241.188 c 3064.757,3768.971 6129.514,7537.942 9194.27,11306.913 1474.665,-1450.696 2949.329,-2901.392 4423.994,-4352.088 -4539.436,-2318.294 -9078.867,-4636.597 -13618.306,-6954.885 l 0.04,0.06 z M -51239.24,-11667.1 c 6091.876,1.228 12183.752,2.455 18275.629,3.682 -3030.037,-3758.666 -6060.075,-7517.332 -9090.112,-11275.998 -3061.839,3757.439 -6123.678,7514.878 -9185.517,11272.316 z m 9956.545,-4460.431 c 77.341,0.558 155.817,4.061 230.507,25.816 29.79,9.106 60.693,21.67 80.876,46.481 10.643,13.821 13.544,32.204 10.081,49.059 -8.295,66.362 -22.827,131.735 -36.656,197.107 -22.308,101.23 -47.156,201.864 -70.453,302.865 -63.936,-6.1 -127.723,-14.627 -191.757,-18.828 -71.85,-3.303 -146.189,5.873 -210.456,40.35 -66.246,34.903 -115.82,95.383 -149.51,161.26 -41.595,80.336 -63.828,168.622 -85.564,256.003 -4.26,18.711 -9.633,37.583 -10.402,56.699 3.735,9.655 15.46,11.295 24.217,14.167 38.572,9.558 78.686,10.222 118.256,12.215 77.295,2.631 155.133,-2.28 231.958,8.557 19.769,3.305 42.153,7.614 55.348,24.173 9.421,14.239 6.255,32.388 6.217,48.445 -3.606,69.732 -15.107,138.764 -27.337,207.416 -16.127,86.788 -33.717,173.289 -50.247,259.992 -152.875,0 -305.75,0 -458.625,0 -25.542,118.079 -50.142,236.356 -71.809,355.2 -68.038,363.766 -133.537,728.023 -200.007,1092.086 -27.681,152.148 -55.355,304.297 -83.032,456.447 -139.428,-0.384 -278.866,0.838 -418.288,-0.78 -77.619,-1.572 -155.461,-3.092 -232.594,-12.572 -8.357,-1.363 -17.758,-2.291 -24.827,-6.883 -2.987,-7.5 -0.02,-15.868 -0.07,-23.635 7.548,-74.741 20.495,-148.797 32.039,-222.992 47.609,-293.359 100.53,-585.832 153.422,-878.276 30.34,-167.163 61.714,-334.14 92.065,-501.3 12.257,-72.614 24.885,-145.484 29.626,-218.979 -0.147,-7.507 1.807,-18.059 -6.494,-21.935 -17.253,-7.693 -36.459,-9.454 -54.945,-12.124 -53.428,-6.653 -107.712,-2.327 -161.463,-6.355 -12.448,-1.75 -26.353,-3.341 -36.192,-11.916 -12.223,-12.475 -10.448,-31.365 -10.517,-47.363 1.29,-47.832 11.235,-94.843 18.806,-141.939 19.543,-109.585 45.916,-217.831 69.129,-326.619 1.476,-5.136 7.333,-6.381 11.909,-5.24 71.381,-4.314 142.961,-6.063 214.157,-12.618 22.747,-2.61 47.504,-5.031 66.218,-19.535 19.224,-17.276 21.21,-44.816 27.198,-68.311 30.123,-132.67 59.736,-266.066 107.011,-393.91 30.413,-80.998 71.219,-158.367 124.008,-227.075 45.398,-59.972 96.017,-115.868 149.147,-169.047 84.19,-82.518 183.09,-151.192 293.258,-194.119 141.339,-55.85 294.96,-71.249 445.792,-71.987 z m -2305.422,48.828 c 134.532,0.246 269.075,-0.537 403.591,0.48 81.899,1.118 163.94,2.937 245.464,11.348 10.347,1.492 21.433,2.383 30.777,7.123 3.417,5.002 0,11.563 0.545,17.08 -7.423,71.824 -20.182,142.946 -31.431,214.233 -52.59,319.012 -114.075,636.457 -171.707,954.578 -56.222,305.65 -111.014,611.558 -166.535,917.333 -77.816,426.812 -156.235,853.544 -237.668,1279.665 -6.631,32.525 -12.315,65.307 -20.585,97.461 -3.902,13.884 -13.068,27.149 -27.245,31.85 -25.888,10.482 -54.372,10.591 -81.81,12.641 -92.96,4.225 -186.049,2.335 -279.07,2.886 -98.673,0 -197.345,0 -296.018,0 0.665,-39.457 -2.203,-79.168 3.996,-118.337 9.895,-77.313 24.004,-154.011 37.013,-230.843 53.832,-308.621 111.351,-616.58 167.946,-924.704 99.677,-540.117 201.092,-1079.913 300.08,-1620.157 34.062,-185.391 66.894,-371.011 101.877,-556.23 6.174,-32.176 12.53,-64.319 19.149,-96.407 l 1,0 0.631,0 z m -1480.658,182.558 c 222.838,0.456 445.725,-0.72 668.536,3.922 61.238,1.73 122.766,2.455 183.508,11.151 15.16,2.516 31.843,4.92 43.67,15.592 8.386,9.722 4.083,23.578 3.403,35 -11.313,84.468 -29.387,167.835 -46.662,251.235 -18.701,87.139 -37.545,174.363 -62.262,260.028 -2.557,7.24 -4.59,15.807 -9.654,21.358 -26.414,5.893 -53.68,5.904 -80.541,8.207 -159.928,9.714 -320.126,13.914 -480.276,17.999 -220.53,5.178 -441.08,9.488 -661.615,14.424 -41.476,230.337 -83.236,460.623 -124.025,691.083 225.73,0.269 451.464,-0.589 677.193,0.524 133.827,1.411 267.8,3.124 401.329,12.454 19.577,1.605 39.52,2.955 58.491,8.059 5.532,4.405 3.053,12.584 3.666,18.624 -1.341,48.646 -9.599,96.749 -16.466,144.831 -19.076,121.408 -44.702,241.671 -66.321,362.609 -2.806,15.343 -5.591,30.675 -8.377,46.022 -62.788,4.396 -125.777,4.531 -188.672,6.337 -317.046,6.675 -634.162,8.835 -951.244,13.14 -6.76,0.08 -13.519,0.163 -20.279,0.245 -39.993,198.834 -83.069,397.099 -118.428,596.805 -7.974,47.227 -16.415,94.583 -21.654,142.08 -2.18,27.31 -2.212,55.319 -3.109,82.488 10.579,0.173 21.263,-0.09 31.898,0.106 265.806,0.266 531.616,-0.658 797.42,0.652 138.331,1.099 276.783,1.92 414.953,8.296 11.201,0.613 22.402,1.599 33.445,3.622 -4.265,56.589 -14.259,112.537 -22.455,168.641 -19.47,124.284 -39.567,248.527 -64.43,371.861 -1.774,8.279 -3.864,16.506 -6.701,24.49 -22.356,6.019 -45.741,5.448 -68.636,7.431 -139.034,7.486 -278.298,9.066 -417.489,11.471 -368.059,5.112 -736.163,2.811 -1104.244,3.335 -134.156,0 -268.312,0 -402.468,0 0.394,-37.385 -1.853,-75.047 4.544,-112.093 23.828,-176.892 59.886,-351.802 92.469,-527.214 98.223,-521.412 193.273,-1043.433 289.482,-1565.227 47.572,-259.705 95.402,-519.374 141.657,-779.306 19.56,-110.742 38.458,-221.69 61.982,-331.645 2.212,-10.264 8.943,-19.692 19.163,-23.136 23.865,-10.531 50.448,-11.628 76.001,-14.504 88.445,-7.345 177.275,-7.491 265.955,-8.966 225.738,-2.524 451.495,-1.833 677.243,-2.031 z m 5172.453,870.586 c 145.477,0.299 292.844,26.675 423.986,91.405 94.993,47.361 184.804,109.685 250.463,194.138 61.453,78.329 98.395,173.502 116.766,270.766 16.29,84.98 20.319,171.752 21.69,258.092 0.1,51.421 -6.845,103.483 -26.712,151.224 -18.502,46.74 -40.751,92.022 -65.982,135.491 -55.834,94.02 -134.211,174.264 -226.303,233.13 -123.655,79.91 -265.959,125.495 -409.061,155.845 -176.194,37.252 -356.265,50.995 -535.834,59.495 -82.513,4.391 -165.025,8.783 -247.537,13.174 0.783,31.85 -2,63.902 1.99,95.559 9.23,58.755 40.862,112.143 77.892,158 43.055,52.468 96.848,97.165 159.335,124.388 65.85,27.511 137.698,37.324 208.481,42.533 123.385,8.123 247.491,-2.097 368.803,-25.339 60.933,-11.782 120.785,-28.502 179.715,-47.904 43.722,-13.119 87.603,-27.691 133.281,-31.996 14.31,-1.163 31.786,-0.589 41.324,11.841 8.577,12.96 9.596,29.08 13.33,43.778 18.041,94.068 25.354,189.753 32.285,285.156 1.482,32.284 2.943,65.109 -3.434,96.984 -5.344,25.457 -19.05,49.519 -40.366,64.882 -32.688,25.112 -72.657,37.769 -111.084,51.162 -53.717,17.562 -107.807,34.099 -162.417,48.65 -118.475,29.382 -240.161,43.478 -361.713,52.434 -137.222,9.478 -275.317,11.313 -412.402,-1.29 -62.113,-5.818 -124.058,-16.26 -183.397,-35.9 -104.682,-31.995 -207.374,-76.791 -292.569,-146.719 -81.192,-66.132 -145.4,-150.615 -199.489,-239.679 -68.265,-116.704 -102.485,-250.181 -117.923,-383.63 -15.034,-133.154 -14.646,-267.921 -1.428,-401.209 20.565,-200.225 76.795,-397.493 171.406,-575.49 83.499,-157.663 194.913,-300.175 325.544,-421.515 155.067,-140.256 347.725,-235.674 549.728,-286.856 105.036,-26.455 213.267,-40.674 321.632,-40.6 z m 2782.801,5.227 c -2.801,44.032 -4.572,88.19 -11.073,131.883 -25.479,180.388 -61.958,358.994 -94.457,538.16 0.295,6.314 -7.359,7.483 -12.162,7.064 -74.879,10.508 -150.546,16.573 -224.767,31.415 -79.948,16.242 -158.333,45.154 -224.742,93.33 -64.826,46.423 -119.571,105.681 -167.454,169.264 -69.854,95.118 -115.224,205.923 -149.97,318.155 -43.05,138.434 -73.065,280.534 -101.575,422.566 -31.82,161.928 -60.202,324.526 -91.216,486.625 -15.179,80.213 -29.676,160.604 -46.655,240.464 -3.353,14.103 -11.657,28.304 -25.967,33.38 -24.573,10.519 -51.882,10.739 -78.079,12.835 -87.825,4.425 -175.803,2.619 -263.702,3.163 -106.843,0 -213.686,0 -320.529,0 0.378,-35.645 -1.789,-71.559 4.398,-106.869 17.585,-129.853 40.709,-258.877 63.798,-387.844 36.819,-201.751 73.967,-403.436 109.409,-605.439 46.599,-264.515 91.973,-529.302 129.708,-795.239 13.557,-96.036 24.864,-192.361 34.121,-288.891 8.552,-74.675 17.235,-149.631 34.882,-222.805 2.413,-8.16 4.307,-17.633 10.435,-23.725 14.155,-7.389 30.695,-7.331 46.144,-9.64 81.329,-7.912 163.205,-7.079 244.803,-5.342 88.323,1.977 176.691,5.096 264.964,7.116 4.281,-1.096 10.809,1.104 9.299,6.562 -2.614,101.755 -5.173,203.611 -7.03,305.42 -0.179,34.711 -1.984,69.857 0.983,104.263 1.661,7.611 0.319,17.548 7.133,22.917 5.722,1.387 9.988,-4.899 13.67,-8.459 19.733,-26.407 37.447,-54.304 57.616,-80.416 90.336,-120.398 200.162,-228.418 331.2,-303.87 96.481,-55.352 205.678,-91.601 317.526,-93.558 46.468,-1.77 92.954,-3.01 139.425,-4.685 -0.04,0.734 -0.09,1.467 -0.136,2.201 z m -2873.282,523.16 c -104.625,1.451 -207.995,36.368 -295.277,93.594 -51.317,33.932 -96.272,77.557 -130.187,128.81 -44.951,64.629 -85.58,132.586 -115.886,205.314 -6.94,17.429 -13.944,35.577 -14.445,54.511 4.306,9.165 16.327,9.486 24.897,11.877 36.162,6.624 73.54,5.927 110.421,6.008 105.993,-1.272 211.773,-10.615 316.64,-25.805 70.274,-10.787 141.71,-24.222 204.905,-58.188 52.652,-27.879 100.253,-68.667 128.45,-121.806 24.038,-45.134 31.235,-99.577 14.101,-148.092 -15.552,-44.842 -47.466,-83.417 -87.592,-108.613 -46.639,-28.438 -102.167,-37.795 -156.027,-37.61 z"
         style="fill:#f5811e;fill-opacity:1;fill-rule:evenodd;stroke:none;stroke-width:1px;stroke-linecap:butt;stroke-linejoin:miter;stroke-opacity:1" />
      <path
         d="m 11065.969,-16165.472 -398.631,1551.734 445.926,0 808.523,-1551.734 -855.818,0 z m -15983.5389,702.672 c -55.5525,0 -109.6043,12.762 -162.1543,38.287 -52.55,25.524 -99.0948,60.056 -139.6348,103.597 -40.5382,43.542 -73.5679,93.84 -99.0918,150.895 -24.0235,57.054 -36.0371,116.361 -36.0371,177.92 -1.5021,49.547 6.0051,94.592 22.5215,135.131 16.5164,40.538 39.038,75.821 67.5644,105.849 30.0286,30.029 64.5618,53.303 103.5996,69.819 39.0379,16.515 80.3285,24.773 123.8692,24.773 52.5517,0 102.8492,-10.511 150.8945,-31.531 49.5475,-21.02 93.8411,-49.548 132.8789,-85.582 40.5382,-37.536 73.5679,-80.325 99.0918,-128.371 27.0261,-49.548 44.2937,-102.85 51.8008,-159.905 l 0.018,0 c 1.4951,-12.011 2.2441,-22.52 2.2441,-31.529 1.4952,-9.009 2.2422,-19.52 2.2422,-31.531 0,-46.545 -8.2568,-90.087 -24.7715,-130.625 -15.0143,-42.041 -36.7863,-78.075 -65.3144,-108.104 -28.5265,-31.53 -62.3079,-55.552 -101.3457,-72.068 -39.0379,-18.017 -81.8301,-27.026 -128.375,-27.026 z m 19512.6659,0 c -55.552,0 -109.604,12.762 -162.156,38.287 -52.55,25.524 -99.095,60.056 -139.633,103.597 -40.538,43.542 -73.57,93.84 -99.096,150.895 -24.021,57.054 -36.033,116.361 -36.033,177.92 -1.502,49.547 6.005,94.592 22.522,135.131 16.514,40.538 39.036,75.821 67.564,105.849 30.029,30.029 64.562,53.303 103.6,69.819 39.036,16.515 80.326,24.773 123.869,24.773 52.55,0 102.847,-10.511 150.892,-31.531 49.548,-21.02 93.84,-49.548 132.877,-85.582 40.539,-37.536 73.57,-80.325 99.096,-128.371 27.026,-49.548 44.294,-102.85 51.801,-159.905 l 0.02,0 c 1.496,-12.011 2.243,-22.52 2.243,-31.529 1.495,-9.009 2.244,-19.52 2.244,-31.531 0,-46.545 -8.259,-90.087 -24.776,-130.625 -15.014,-42.041 -36.784,-78.075 -65.31,-108.104 -28.528,-31.53 -62.312,-55.552 -101.35,-72.068 -39.036,-18.017 -81.826,-27.026 -128.371,-27.026 z m -29000.99,4.503 -700.42,112.608 -204.947,1403.092 c -48.046,-106.602 -119.363,-189.181 -213.953,-247.737 -93.089,-58.555 -209.451,-88.583 -349.084,-90.086 -121.617,1.502 -234.226,24.774 -337.825,69.817 -102.097,45.043 -195.187,106.603 -279.267,184.678 -84.081,78.074 -158.401,170.411 -222.963,277.013 -63.06,105.101 -115.61,219.211 -157.65,342.328 -42.041,123.118 -74.321,251.49 -96.842,385.118 -21.021,133.627 -30.782,267.256 -29.28,400.884 0,141.135 14.264,270.259 42.791,387.371 28.528,117.112 73.57,218.458 135.129,304.039 63.061,84.081 143.387,149.393 240.981,195.938 97.593,46.544 216.208,69.818 355.842,69.818 82.579,0 159.901,-10.511 231.97,-31.531 73.571,-21.02 139.634,-50.298 198.19,-87.834 60.057,-37.536 111.857,-81.828 155.398,-132.877 45.043,-51.049 81.83,-106.603 110.358,-166.66 l 85.58,376.111 490.97,0 545.022,-3752.09 z m 27910.947,0 -698.168,103.6 -531.508,3652.994 682.403,0 547.273,-3756.594 z m 13386.803,0 -698.168,103.6 -531.51,3652.994 682.402,0 547.276,-3756.594 z m 1551.734,83.331 c -141.135,0 -267.254,29.277 -378.359,87.834 -109.605,58.556 -204.947,138.882 -286.026,240.98 -81.078,102.098 -147.891,222.212 -200.441,360.344 -52.55,138.132 -90.838,286.775 -114.861,445.928 l -299.535,0 -54.053,346.831 304.041,0 -306.291,2191.346 684.652,0 306.295,-2191.346 560.785,0 51.799,-346.831 -563.037,0 c 25.524,-187.68 68.314,-328.816 128.371,-423.407 61.559,-96.092 137.383,-144.137 227.471,-144.137 61.557,0 115.607,6.007 162.152,18.018 48.045,12.011 89.336,24.772 123.869,38.285 l 90.088,-538.264 c -67.566,-21.02 -138.134,-40.539 -211.703,-58.556 -73.571,-18.017 -148.643,-27.025 -225.217,-27.025 z m -36509.6599,51.798 -695.9161,184.678 -126.1191,898.61 -301.7891,0 -49.5488,342.326 281.5215,0 -173.418,1177.877 c -7.5071,52.55 -14.2625,103.599 -20.2675,153.146 -4.5047,49.547 -6.7579,97.594 -6.7579,144.139 0,43.541 0.7471,84.079 2.2422,121.615 3.0025,37.536 7.5067,72.82 13.5117,105.852 30.0286,181.673 99.095,315.302 207.1993,400.884 108.1024,85.582 247.7365,128.371 418.9004,128.371 99.0949,0 192.1844,-9.758 279.2675,-29.277 87.0832,-19.519 162.9051,-40.539 227.4668,-63.06 66.0639,-24.023 118.6145,-45.794 157.6524,-65.313 39.0361,-21.019 60.0563,-32.279 63.0605,-33.781 l -117.1133,-376.11 -31.5293,18.016 c -22.5214,10.51 -51.8006,23.273 -87.8359,38.287 -34.5332,13.513 -74.3204,26.276 -119.3633,38.287 -43.5375,10.51 -87.8259,15.765 -132.8672,15.766 -37.5357,0 -71.3171,-6.757 -101.3457,-20.27 -28.5264,-15.014 -51.7998,-38.288 -69.8183,-69.818 -18.0168,-31.53 -30.0282,-72.068 -36.0332,-121.615 -4.5047,-51.049 -1.5019,-112.609 9.0078,-184.678 l 200.4414,-1378.318 581.0566,0 51.8008,-342.327 -585.5605,0 162.1543,-1083.287 z m 17206.4589,0 -695.916,184.678 -126.121,898.61 -301.787,0 -49.547,342.326 281.518,0 -173.415,1177.877 c -7.507,52.55 -14.264,103.599 -20.271,153.146 -4.505,49.547 -6.758,97.594 -6.758,144.139 0,43.541 0.749,84.079 2.244,121.615 3.003,37.536 7.507,72.82 13.514,105.852 30.029,181.673 99.095,315.302 207.197,400.884 108.104,85.582 247.737,128.371 418.901,128.371 99.095,0 192.184,-9.758 279.267,-29.277 87.083,-19.519 162.905,-40.539 227.467,-63.06 66.062,-24.023 118.613,-45.794 157.65,-65.313 39.038,-21.019 60.058,-32.279 63.061,-33.781 l -117.111,-376.11 -31.532,18.016 c -22.521,10.51 -51.798,23.273 -87.832,38.287 -34.533,13.513 -74.32,26.276 -119.363,38.287 -43.539,10.51 -87.828,15.765 -132.867,15.766 -37.536,0 -71.319,-6.757 -101.348,-20.27 -28.528,-15.014 -51.799,-38.288 -69.816,-69.818 -18.017,-31.53 -30.029,-72.068 -36.035,-121.615 -4.505,-51.049 -1.502,-112.609 9.009,-184.678 l 200.44,-1378.318 581.055,0 51.8,-342.327 -585.56,0 162.156,-1083.287 z m 14398.012,4.504 -511.239,3616.961 2173.329,0 99.095,-515.744 -1506.693,0 164.406,-1126.076 1279.227,0 69.814,-508.988 -1272.465,0 135.127,-941.401 1423.362,0 78.826,-524.752 -2132.789,0 z m -44682.74,2.254 -65.313,358.092 400.883,0 -461.692,2914.287 -403.134,0 -56.305,342.328 1486.422,0 65.312,-342.328 -407.64,0 461.691,-2914.287 407.641,0 63.06,-358.092 -1490.925,0 z m 23093.589,0 -155.4,966.174 c -63.06,444.425 -125.369,885.846 -186.928,1324.266 -61.559,438.419 -123.868,879.842 -186.927,1324.267 l 641.863,0 373.857,-2610.246 254.494,1918.834 112.608,691.412 657.629,0 240.978,-524.752 844.559,-2094.504 -369.352,2619.256 646.369,0 342.325,-2394.041 135.13,-1220.666 -873.835,0 -385.118,880.592 -621.595,1493.178 -200.442,542.769 -58.556,-565.291 -189.18,-1378.318 -150.895,-972.93 -871.584,0 z m 4905.192,1029.235 c -211.702,0 -404.637,40.537 -578.803,121.615 -174.166,81.077 -324.309,193.686 -450.43,337.824 -124.619,144.138 -221.463,315.301 -290.529,513.49 -69.066,198.19 -103.6,414.397 -103.6,648.621 0,160.654 25.525,303.29 76.575,427.909 52.55,123.117 126.87,227.468 222.961,313.05 97.594,84.081 215.458,148.643 353.589,193.686 138.133,43.541 292.78,65.31 463.944,65.31 291.278,0 578.053,-70.566 860.324,-211.701 l 0.01,0 -74.321,-481.961 c -99.094,67.565 -202.694,119.364 -310.798,155.399 -108.103,36.034 -224.463,54.051 -349.082,54.051 -165.159,0 -292.782,-47.295 -382.868,-141.885 -88.585,-94.591 -132.878,-225.216 -132.878,-391.875 0,-21.02 0.749,-42.041 2.244,-63.061 1.502,-21.02 3.753,-42.791 6.756,-65.312 249.237,-1.502 459.439,-15.015 630.603,-40.539 171.164,-25.525 312.3,-57.054 423.406,-94.59 112.607,-39.037 198.939,-81.078 258.996,-126.121 60.058,-45.043 104.349,-88.585 132.877,-130.625 28.527,-42.041 45.043,-79.576 49.547,-112.608 6.007,-33.031 9.01,-57.054 9.01,-72.068 0,-124.619 -15.764,-240.981 -47.295,-349.084 -30.029,-109.605 -78.075,-204.946 -144.139,-286.024 -66.062,-81.077 -150.894,-144.889 -254.494,-191.433 -103.599,-48.046 -227.467,-72.068 -371.605,-72.068 z m 23368.351,0 c -211.703,0 -404.638,40.537 -578.804,121.615 -174.167,81.077 -324.311,193.686 -450.432,337.824 -124.619,144.138 -221.461,315.301 -290.527,513.49 -69.065,198.19 -103.598,414.397 -103.598,648.621 0,160.654 25.524,303.29 76.572,427.909 52.55,123.117 126.871,227.468 222.963,313.05 97.593,84.081 215.455,148.643 353.588,193.686 138.131,43.541 292.78,65.31 463.943,65.31 291.28,0 578.054,-70.566 860.323,-211.701 l 0,0 -74.321,-481.961 c -99.093,67.565 -202.692,119.364 -310.797,155.399 -108.104,36.034 -224.465,54.051 -349.084,54.051 -165.157,0 -292.779,-47.295 -382.867,-141.885 -88.583,-94.591 -132.875,-225.216 -132.875,-391.875 0,-21.02 0.747,-42.041 2.242,-63.061 1.502,-21.02 3.756,-42.791 6.758,-65.312 249.24,-1.502 459.44,-15.015 630.604,-40.539 171.162,-25.525 312.297,-57.054 423.404,-94.59 112.609,-39.037 198.941,-81.078 258.998,-126.121 60.057,-45.043 104.351,-88.585 132.877,-130.625 28.528,-42.041 45.044,-79.576 49.549,-112.608 6.005,-33.031 9.008,-57.054 9.008,-72.068 0,-124.619 -15.767,-240.981 -47.297,-349.084 -30.029,-109.605 -78.075,-204.946 -144.137,-286.024 -66.064,-81.077 -150.895,-144.889 -254.494,-191.433 -103.598,-48.046 -227.466,-72.068 -371.604,-72.068 z m -40685.166,6.755 c -154.647,0 -295.783,19.52 -423.406,58.557 -126.121,39.037 -234.223,94.589 -324.309,166.658 -88.585,72.069 -156.901,159.152 -204.947,261.25 -48.04,100.596 -71.311,213.956 -69.816,340.076 0,73.571 10.51,140.384 31.531,200.442 22.521,60.057 56.303,115.611 101.346,166.66 46.545,51.049 104.351,98.343 173.418,141.885 70.567,43.541 153.896,86.332 249.988,128.373 l 299.535,132.877 c 76.574,33.031 129.124,66.814 157.651,101.347 30.03,33.032 45.044,74.32 45.044,123.868 0,90.086 -33.031,158.402 -99.095,204.947 -64.562,45.043 -160.652,67.564 -288.274,67.564 -79.577,0 -158.404,-9.01 -236.478,-27.027 -78.074,-19.519 -149.392,-40.537 -213.953,-63.059 -64.562,-24.023 -118.614,-46.546 -162.157,-67.566 -42.04,-21.02 -66.063,-33.781 -72.068,-38.285 l -193.685,475.203 c 100.595,76.573 221.46,135.882 362.595,177.922 142.638,42.039 307.045,63.81 493.221,65.312 157.652,-1.501 301.04,-24.775 430.164,-69.818 129.124,-45.043 239.479,-107.352 331.066,-186.928 91.5882,-81.077 162.1561,-177.92 211.7035,-290.527 51.0427,-114.109 75.8155,-240.982 74.3204,-380.615 0,-94.591 -16.5161,-175.668 -49.5489,-243.233 -33.031,-67.564 -78.0743,-126.871 -135.1289,-177.92 -57.0541,-51.049 -123.8681,-95.341 -200.4411,-132.877 -75.072,-37.536 -155.398,-73.57 -240.979,-108.103 l -283.773,-112.608 c -31.529,-12.011 -58.555,-24.023 -81.076,-36.035 -21.021,-12.011 -38.287,-24.774 -51.799,-38.287 -13.514,-13.513 -23.275,-28.527 -29.28,-45.043 -4.504,-18.017 -6.755,-39.037 -6.755,-63.06 0,-33.032 6.755,-62.31 20.267,-87.834 13.514,-25.525 35.284,-47.296 65.313,-65.313 31.53,-18.017 72.821,-31.528 123.869,-40.537 51.049,-9.009 114.86,-13.514 191.433,-13.514 73.57,0 147.14,8.258 220.711,24.774 73.571,15.014 139.635,32.28 198.19,51.799 60.0569,18.017 109.6046,36.035 148.6424,54.052 40.5382,16.516 64.5612,27.025 72.0683,31.53 l 193.6856,-468.448 c -58.555,-34.533 -122.3672,-65.312 -191.4336,-92.337 -69.0664,-27.026 -140.3838,-49.548 -213.9527,-67.565 -72.071,-19.519 -144.141,-33.782 -216.209,-42.791 -72.069,-10.51 -141.136,-15.766 -207.198,-15.766 z m 7319.5023,0 c -120.116,0 -236.4769,23.272 -349.084,69.817 -112.6071,45.043 -217.7082,107.353 -315.3027,186.93 -97.5929,79.576 -186.9297,173.416 -268.0078,281.519 -81.0765,108.103 -150.8925,223.712 -209.4493,346.83 -58.555,123.118 -104.348,251.491 -137.3808,385.119 -31.5359,133.628 -48.0517,266.505 -49.5469,398.631 -1.5021,141.135 12.7605,269.509 42.7891,385.119 30.0303,115.611 77.3269,215.457 141.8886,299.537 64.5618,82.579 147.1391,147.139 247.7344,193.684 100.5971,46.544 221.4641,69.818 362.5977,69.818 81.0781,0 156.9,-11.261 227.4668,-33.783 72.0689,-21.02 136.6309,-50.298 193.6855,-87.834 57.0546,-39.037 106.6022,-84.08 148.6426,-135.129 42.0403,-52.55 75.822,-108.104 101.3476,-166.66 l 85.5821,385.119 497.7246,0 333.3203,-2265.668 -60.8106,-38.287 c -34.5331,-22.521 -83.329,-48.795 -146.3886,-78.824 -63.0597,-31.53 -138.1297,-61.559 -225.2129,-90.086 -85.5828,-30.029 -180.9254,-54.804 -286.0254,-74.322 -105.1017,-21.02 -216.9582,-31.53 -335.5703,-31.53 z m 2481.8727,0 c -154.6471,0 -295.7828,19.52 -423.4059,58.557 -126.1193,39.037 -234.2231,94.589 -324.3106,166.658 -88.5835,72.069 -156.8982,159.152 -204.9453,261.25 -48.0384,100.596 -71.3096,213.956 -69.8144,340.076 0,73.571 10.51,140.384 31.5293,200.442 22.5214,60.057 56.3028,115.611 101.3457,166.66 46.5449,51.049 104.3515,98.343 173.4179,141.885 70.5668,43.541 153.8959,86.332 249.9883,128.373 l 299.5352,132.877 c 76.5738,33.031 129.1238,66.814 157.6528,101.347 30.028,33.032 45.042,74.32 45.042,123.868 0,90.086 -33.031,158.402 -99.095,204.947 -64.562,45.043 -160.6542,67.564 -288.2756,67.564 -79.576,0 -158.4009,-9.01 -236.4766,-27.027 -78.0739,-19.519 -149.3913,-40.537 -213.9531,-63.059 -64.5618,-24.023 -118.6138,-46.546 -162.1562,-67.566 -42.0404,-21.02 -66.0634,-33.781 -72.0684,-38.285 l -193.6856,475.203 c 100.5971,76.573 221.4622,135.882 362.5957,177.922 142.6375,42.039 307.0446,63.81 493.2227,65.312 157.65,-1.501 301.0371,-24.775 430.1601,-69.818 129.124,-45.043 239.481,-107.352 331.068,-186.928 91.588,-81.077 162.156,-177.92 211.704,-290.527 51.042,-114.109 75.815,-240.982 74.32,-380.615 0,-94.591 -16.516,-175.668 -49.547,-243.233 -33.033,-67.564 -78.076,-126.871 -135.131,-177.92 -57.054,-51.049 -123.868,-95.341 -200.439,-132.877 -75.073,-37.536 -155.4,-73.57 -240.981,-108.103 l -283.7713,-112.608 c -31.5307,-12.011 -58.5567,-24.023 -81.0781,-36.035 -21.021,-12.011 -38.2886,-24.774 -51.8008,-38.287 -13.5121,-13.513 -23.2706,-28.527 -29.2773,-45.043 -4.5047,-18.017 -6.7578,-39.038 -6.7578,-63.06 0,-33.032 6.7575,-62.31 20.2714,-87.834 13.5122,-25.525 35.282,-47.296 65.3106,-65.313 31.5307,-18.017 72.8215,-31.528 123.8711,-40.537 51.0478,-9.009 114.8582,-13.514 191.4312,-13.514 73.571,0 147.142,8.258 220.711,24.774 73.571,15.014 139.635,32.28 198.19,51.799 60.059,18.017 109.606,36.035 148.642,54.052 40.54,16.516 64.564,27.025 72.071,31.53 l 193.685,-468.448 c -58.556,-34.533 -122.369,-65.312 -191.435,-92.338 -69.067,-27.025 -140.384,-49.547 -213.953,-67.564 -72.069,-19.519 -144.139,-33.782 -216.207,-42.791 -72.069,-10.51 -141.136,-15.766 -207.2,-15.766 z m 11625.619,0 c -120.116,0 -236.476,23.272 -349.084,69.817 -112.607,45.043 -217.708,107.353 -315.302,186.93 -97.593,79.576 -186.928,173.416 -268.004,281.519 -81.078,108.103 -150.895,223.712 -209.451,346.83 -58.555,123.118 -104.35,251.491 -137.383,385.119 -31.536,133.628 -48.052,266.505 -49.547,398.631 -1.5,141.135 12.764,269.509 42.793,385.119 30.029,115.611 77.323,215.457 141.885,299.537 64.561,82.579 147.141,147.139 247.736,193.684 100.597,46.544 221.462,69.818 362.598,69.818 81.076,0 156.9,-11.261 227.468,-33.783 72.069,-21.02 136.631,-50.298 193.686,-87.834 57.055,-39.037 106.602,-84.08 148.643,-135.129 42.038,-52.55 75.82,-108.104 101.345,-166.66 l 85.582,385.119 497.725,0 333.32,-2265.668 -60.81,-38.287 c -34.532,-22.521 -83.328,-48.795 -146.389,-78.824 -63.06,-31.53 -138.132,-61.559 -225.215,-90.086 -85.583,-30.029 -180.923,-54.804 -286.023,-74.322 -105.1,-21.02 -216.959,-31.53 -335.573,-31.53 z m 5441.208,0 c -172.666,0 -340.078,37.536 -502.233,112.608 -160.654,75.072 -304.041,181.674 -430.16,319.807 -126.121,138.132 -228.219,304.041 -306.295,497.726 -78.074,193.685 -119.363,409.891 -123.867,648.619 -4.505,166.66 15.014,314.551 58.556,443.674 43.541,127.622 105.85,235.726 186.928,324.311 82.579,87.083 180.924,153.896 295.033,200.441 115.612,45.042 243.232,68.316 382.866,69.818 87.083,-1.501 166.659,-7.507 238.728,-18.017 73.571,-10.51 142.638,-25.525 207.199,-45.043 66.063,-19.519 130.625,-43.543 193.686,-72.071 63.06,-28.527 129.123,-62.308 198.189,-101.345 l -45.043,-481.961 c -25.524,16.516 -51.048,33.031 -76.574,49.547 -25.524,16.515 -51.048,32.28 -76.572,47.295 -15.014,9.008 -37.536,19.519 -67.565,31.531 -28.528,12.011 -60.808,23.271 -96.841,33.781 -34.534,10.51 -71.32,19.518 -110.358,27.026 -39.038,7.507 -75.822,11.261 -110.355,11.261 -333.319,0 -495.474,-188.43 -486.465,-565.291 0,-40.539 1.501,-81.829 4.504,-123.869 4.504,-42.04 11.26,-84.079 20.267,-126.119 21.021,-130.625 49.549,-243.984 85.582,-340.076 36.036,-97.594 81.079,-177.92 135.131,-240.981 55.553,-63.06 120.866,-109.604 195.938,-139.632 75.071,-31.531 163.656,-47.297 265.756,-47.297 51.048,0 103.596,6.756 157.648,20.269 55.553,13.513 107.353,30.03 155.4,49.549 48.046,19.518 90.086,40.539 126.12,63.06 36.035,22.522 61.56,43.54 76.574,63.059 l 209.449,-481.961 c -57.055,-37.536 -112.608,-70.566 -166.658,-99.094 -52.552,-30.028 -108.855,-54.051 -168.912,-72.068 -58.555,-19.519 -122.367,-33.782 -191.434,-42.791 -69.066,-10.51 -147.139,-15.766 -234.222,-15.766 z m 2071.98,0 c -120.114,0 -236.475,23.272 -349.084,69.817 -112.607,45.043 -217.708,107.353 -315.301,186.93 -97.594,79.576 -186.929,173.416 -268.006,281.519 -81.078,108.103 -150.896,223.712 -209.453,346.83 -58.555,123.118 -104.348,251.491 -137.379,385.119 -31.537,133.628 -48.053,266.505 -49.549,398.631 -1.5,141.135 12.765,269.509 42.793,385.119 30.029,115.611 77.323,215.457 141.885,299.537 64.562,82.579 147.141,147.139 247.737,193.684 100.597,46.544 221.462,69.818 362.597,69.818 81.077,0 156.898,-11.261 227.467,-33.783 72.069,-21.02 136.631,-50.298 193.686,-87.834 57.054,-39.037 106.602,-84.08 148.642,-135.129 42.04,-52.55 75.822,-108.104 101.346,-166.66 l 85.582,385.119 497.724,0 333.321,-2265.668 -60.807,-38.287 c -34.533,-22.521 -83.331,-48.795 -146.392,-78.824 -63.06,-31.53 -138.13,-61.559 -225.213,-90.086 -85.583,-30.029 -180.926,-54.804 -286.026,-74.322 -105.1,-21.02 -216.956,-31.53 -335.57,-31.53 z m 2481.873,0 c -154.647,0 -295.781,19.52 -423.402,58.557 -126.121,39.037 -234.225,94.589 -324.311,166.658 -88.585,72.069 -156.9,159.152 -204.945,261.25 -48.04,100.596 -71.314,213.956 -69.819,340.076 0,73.571 10.51,140.384 31.53,200.442 22.521,60.057 56.305,115.611 101.349,166.66 46.544,51.049 104.348,98.343 173.414,141.885 70.569,43.541 153.898,86.332 249.989,128.373 l 299.537,132.877 c 76.572,33.031 129.122,66.814 157.65,101.347 30.029,33.032 45.043,74.32 45.043,123.868 0,90.086 -33.032,158.402 -99.096,204.947 -64.561,45.043 -160.654,67.564 -288.275,67.564 -79.576,0 -158.401,-9.01 -236.475,-27.027 -78.075,-19.519 -149.393,-40.537 -213.955,-63.059 -64.561,-24.023 -118.613,-46.546 -162.154,-67.566 -42.04,-21.02 -66.063,-33.781 -72.07,-38.285 l -193.686,475.203 c 100.597,76.573 221.463,135.882 362.598,177.922 142.636,42.039 307.042,63.81 493.221,65.312 157.65,-1.501 301.038,-24.775 430.162,-69.818 129.123,-45.043 239.478,-107.352 331.066,-186.928 91.588,-81.077 162.156,-177.92 211.703,-290.527 51.043,-114.109 75.816,-240.982 74.321,-380.615 0,-94.591 -16.516,-175.668 -49.547,-243.233 -33.031,-67.564 -78.075,-126.871 -135.129,-177.92 -57.055,-51.049 -123.868,-95.341 -200.442,-132.877 -75.071,-37.536 -155.397,-73.57 -240.98,-108.103 l -283.772,-112.608 c -31.53,-12.011 -58.556,-24.023 -81.078,-36.035 -21.019,-12.011 -38.287,-24.774 -51.8,-38.287 -13.513,-13.513 -23.271,-28.527 -29.278,-45.043 -4.503,-18.017 -6.754,-39.038 -6.754,-63.06 0,-33.032 6.756,-62.31 20.268,-87.834 13.512,-25.525 35.284,-47.296 65.314,-65.313 31.529,-18.017 72.818,-31.528 123.867,-40.537 51.048,-9.009 114.859,-13.514 191.432,-13.514 73.571,0 147.142,8.258 220.711,24.774 73.571,15.014 139.635,32.28 198.191,51.799 60.058,18.017 109.605,36.035 148.643,54.052 40.538,16.516 64.561,27.025 72.068,31.53 l 193.686,-468.448 c -58.557,-34.533 -122.369,-65.312 -191.436,-92.338 -69.064,-27.025 -140.382,-49.547 -213.953,-67.564 -72.069,-19.519 -144.138,-33.782 -216.207,-42.791 -72.069,-10.51 -141.135,-15.766 -207.199,-15.766 z m -38946.502,2.252 c -66.063,0 -132.126,9.759 -198.189,29.278 -66.064,19.518 -129.875,46.545 -191.434,81.078 -60.058,33.031 -116.36,72.068 -168.91,117.111 -52.551,45.043 -97.595,92.34 -135.131,141.887 l -78.824,-331.066 -520.248,0 -369.354,2538.177 684.654,0 272.512,-1871.541 c 54.052,-57.054 118.614,-102.848 193.686,-137.381 76.573,-36.034 155.399,-54.052 236.476,-54.052 103.599,0 175.667,24.774 216.205,74.322 42.041,49.547 63.061,128.373 63.061,236.476 0,46.545 -4.503,103.6 -13.512,171.165 -34.533,243.232 -71.318,495.472 -110.355,756.722 -39.038,259.749 -79.577,534.512 -121.617,824.289 l 686.906,0 c 40.539,-280.768 79.577,-547.274 117.113,-799.515 37.536,-253.743 73.571,-502.231 108.104,-745.463 6.005,-57.055 11.259,-109.605 15.763,-157.651 6.006,-49.547 9.01,-97.594 9.01,-144.138 0,-244.735 -55.554,-427.159 -166.66,-547.274 -111.106,-121.616 -287.525,-182.424 -529.256,-182.424 z m 12096.3204,0 c -37.5357,1.503 -76.5731,2.252 -117.1114,2.252 -39.0378,0 -79.5768,2.252 -121.6171,6.756 -43.5408,6.006 -87.8322,16.517 -132.875,31.531 -45.0446,15.015 -90.8396,37.536 -137.3829,67.565 -45.0428,28.527 -90.8358,66.063 -137.3808,112.607 -46.5447,45.043 -93.0901,100.596 -139.6348,166.659 l -81.0762,-349.084 -517.998,0 -364.8457,2538.177 682.4023,0 261.25,-1810.732 c 79.5761,-58.556 161.4037,-105.85 245.4844,-141.885 85.5811,-37.535 172.6647,-57.054 261.25,-58.557 36.0336,0 72.0682,3.755 108.1035,11.262 36.0336,6.006 69.0654,14.264 99.0957,24.774 l 92.336,-601.325 z m 38809.1206,0 c -37.535,1.503 -76.571,2.252 -117.109,2.252 -39.038,0 -79.577,2.252 -121.617,6.756 -43.541,6.006 -87.832,16.517 -132.875,31.531 -45.043,15.015 -90.838,37.536 -137.383,67.565 -45.043,28.527 -90.836,66.063 -137.381,112.607 -46.544,45.043 -93.09,100.596 -139.635,166.659 l -81.076,-349.084 -517.996,0 -364.847,2538.177 682.4,0 261.25,-1810.732 c 79.576,-58.556 161.406,-105.85 245.486,-141.885 85.581,-37.535 172.663,-57.054 261.248,-58.557 36.036,0 72.07,3.755 108.104,11.262 36.035,6.006 69.067,14.264 99.096,24.774 l 92.335,-601.325 z m -46939.398,38.288 c -31.53,223.714 -66.064,461.69 -103.6,713.931 -36.034,250.74 -72.069,502.231 -108.103,754.473 -7.507,52.55 -13.511,102.848 -18.016,150.894 -4.504,48.046 -6.758,91.588 -6.758,130.625 -1.501,273.262 62.31,479.709 191.434,619.342 129.124,138.132 329.564,207.199 601.324,207.199 78.075,0 150.144,-12.012 216.207,-36.035 66.063,-22.521 125.37,-53.3 177.92,-92.338 52.55,-39.037 99.096,-83.329 139.635,-132.877 40.539,-51.049 75.072,-104.351 103.6,-159.904 16.515,64.562 32.28,128.373 47.294,191.434 16.516,63.06 33.031,126.871 49.547,191.433 l 484.213,0 360.346,-2538.177 -684.656,0 -272.51,1869.287 c -55.553,61.559 -117.864,108.104 -186.93,139.634 -69.066,31.531 -148.642,49.547 -238.728,54.051 -85.582,-4.504 -155.398,-33.782 -209.449,-87.834 -54.052,-54.052 -82.58,-126.121 -85.583,-216.207 -3.002,-15.014 -4.503,-30.779 -4.503,-47.295 1.502,-18.017 2.252,-36.786 2.252,-56.304 1.501,-25.525 6.006,-60.056 13.513,-103.598 18.018,-126.121 36.034,-255.995 54.051,-389.623 19.519,-135.129 38.288,-269.509 56.305,-403.137 19.518,-133.628 38.285,-264.251 56.302,-391.873 18.018,-129.123 35.285,-251.491 51.801,-367.101 l 0,0 -686.906,0 z m 8558.1875,0 -369.3535,2538.177 686.9063,0 369.3515,-2538.177 -686.9043,0 z m 19512.6645,0 -369.356,2538.177 686.91,0 369.352,-2538.177 -686.906,0 z m -7296.12,432.404 c 226.144,0.745 339.215,143.384 339.215,427.918 0,10.51 -1.501,22.522 -4.504,36.035 -3.002,13.513 -12.763,27.776 -29.279,42.791 -16.516,13.513 -42.791,27.777 -78.824,42.791 -34.533,13.513 -84.831,26.274 -150.895,38.285 -64.561,12.012 -147.141,22.523 -247.736,31.531 -99.095,7.508 -220.712,12.763 -364.85,15.766 13.513,-91.588 35.285,-176.42 65.315,-254.494 30.028,-78.075 67.564,-144.888 112.607,-200.442 45.043,-57.054 96.842,-101.346 155.397,-132.877 60.059,-31.53 126.122,-47.294 198.191,-47.294 1.795,-0.01 3.583,-0.02 5.363,-0.01 z m 23368.348,0 c 226.145,0.745 339.219,143.384 339.219,427.918 0,10.51 -1.502,22.522 -4.504,36.035 -3.004,13.513 -12.765,27.776 -29.279,42.791 -16.517,13.513 -42.793,27.777 -78.828,42.791 -34.532,13.513 -84.829,26.274 -150.893,38.285 -64.562,12.012 -147.141,22.523 -247.738,31.531 -99.094,7.508 -220.708,12.763 -364.846,15.766 13.512,-91.588 35.282,-176.42 65.311,-254.494 30.028,-78.075 67.564,-144.888 112.607,-200.442 45.043,-57.054 96.842,-101.346 155.398,-132.877 60.058,-31.53 126.121,-47.294 198.19,-47.294 1.795,-0.01 3.582,-0.02 5.363,-0.01 z m -33204.3671,31.539 c 52.55,0 102.8494,3.752 150.8965,11.26 48.0454,7.507 89.334,16.517 123.8672,27.027 l -207.1992,1376.066 c -45.0429,57.055 -105.1005,102.098 -180.1719,135.129 -73.571,33.032 -161.4045,49.547 -263.502,49.547 -109.6046,0 -191.4322,-41.29 -245.4843,-123.869 -52.55,-82.579 -78.8262,-210.2 -78.8262,-382.865 1.5021,-145.639 23.2741,-284.522 65.3145,-416.649 43.5407,-132.126 98.3423,-248.487 164.4062,-349.084 66.0621,-100.596 140.3846,-180.172 222.9648,-238.728 82.5786,-58.556 165.1559,-87.834 247.7344,-87.834 z m 14107.4941,0 c 52.55,0 102.848,3.752 150.895,11.26 48.045,7.507 89.336,16.517 123.869,27.027 l -207.199,1376.066 c -45.043,57.055 -105.101,102.098 -180.172,135.129 -73.571,33.032 -161.405,49.547 -263.502,49.547 -109.605,0 -191.435,-41.29 -245.487,-123.869 -52.55,-82.579 -78.824,-210.2 -78.824,-382.865 1.502,-145.639 23.272,-284.522 65.313,-416.649 43.54,-132.126 98.344,-248.487 164.408,-349.084 66.062,-100.596 140.382,-180.172 222.963,-238.728 82.578,-58.556 165.158,-87.834 247.736,-87.834 z m 7513.186,0 c 52.55,0 102.849,3.752 150.896,11.26 48.045,7.507 89.334,16.517 123.867,27.027 l -207.199,1376.066 c -45.043,57.055 -105.098,102.098 -180.17,135.129 -73.571,33.032 -161.406,49.547 -263.504,49.547 -109.604,0 -191.432,-41.29 -245.484,-123.869 -52.55,-82.579 -78.826,-210.2 -78.826,-382.865 1.502,-145.639 23.274,-284.522 65.314,-416.649 43.541,-132.126 98.343,-248.487 164.406,-349.084 66.064,-100.596 140.387,-180.172 222.965,-238.728 82.579,-58.556 165.156,-87.834 247.735,-87.834 z m -34354.36,9.008 c 99.095,0 186.178,21.02 261.25,63.06 75.072,42.041 137.382,93.84 186.93,155.399 -12.012,88.584 -24.774,177.921 -38.287,268.007 -13.513,90.087 -27.026,183.927 -40.539,281.52 -13.513,96.092 -28.527,196.687 -45.043,301.787 -15.015,105.101 -30.779,216.208 -47.295,333.32 -46.545,57.055 -108.103,102.098 -184.676,135.129 -75.072,33.032 -164.409,49.547 -268.008,49.547 -109.605,0 -189.931,-41.29 -240.98,-123.869 -51.049,-82.579 -78.074,-203.443 -81.076,-362.596 -3.003,-82.579 3.751,-174.918 20.267,-277.015 12.012,-90.086 27.778,-183.176 47.297,-279.268 19.519,-97.593 46.543,-186.178 81.076,-265.754 34.533,-81.077 79.576,-147.891 135.129,-200.441 57.055,-52.55 128.373,-78.826 213.955,-78.826 z"
         id="path3356"
         inkscape:connector-curvature="0"
         style="font-style:italic;font-variant:normal;font-weight:bold;font-stretch:normal;font-size:medium;line-height:125%;font-family:Nobile;-inkscape-font-specification:'Nobile, Bold Italic';text-align:start;letter-spacing:0px;word-spacing:0px;writing-mode:lr-tb;text-anchor:start;fill:#000000;fill-opacity:1;stroke:none;stroke-width:1px;stroke-linecap:butt;stroke-linejoin:miter;stroke-opacity:1" />
    </g>
    <g
       inkscape:export-ydpi="55.779999"
       inkscape:export-xdpi="55.779999"
       inkscape:export-filename="C:\Users\Sergio Tafoya\Dropbox\SolucionesInnova\industriaselfer\web\img\logoancho.png"
       id="g3343"
       transform="translate(0,764.61564)">
      <path
         style="fill:#f5811e;fill-opacity:1;fill-rule:evenodd;stroke:none;stroke-width:1px;stroke-linecap:butt;stroke-linejoin:miter;stroke-opacity:1"
         d="m -149,314.3622 -352.2253,432.24507 700.79209,0.1412 z"
         id="path3345"
         inkscape:connector-curvature="0"
         sodipodi:nodetypes="cccc" />
      <path
         style="fill:#f5811e;fill-opacity:1;fill-rule:evenodd;stroke:none;stroke-width:1px;stroke-linecap:butt;stroke-linejoin:miter;stroke-opacity:1"
         d="M -132.44194,302.78768 220.12132,736.3622 389.76256,569.47832 Z"
         id="path3347"
         inkscape:connector-curvature="0"
         sodipodi:nodetypes="cccc" />
      <path
         style="fill:#ffffff"
         d="m -93.829127,713.95541 c -9.519913,-2.6796 -14.571143,-6.3165 -19.663863,-14.1577 -3.74272,-5.7626 -5.57789,-13.3836 -5.62435,-23.3565 -0.0831,-17.8299 5.98013,-32.8049 18.16301,-44.8592 13.277053,-13.137 36.518893,-17.6855 51.344284,-10.0483 9.50044,4.8941 13.65439,11.5946 14.34375,23.1372 0.41122,6.8854 0.16911,8.3275 -2.21676,13.2041 -5.99572,12.2548 -18.75337,17.9151 -43.326221,19.2229 l -12.25,0.652 0,2.6978 c 0,3.9038 3.912,9.1853 8.5132,11.4935 5.76308,2.8911 18.59299,2.6813 28.374801,-0.464 5.63429,-1.8116 7.4769,-2.0636 8.07026,-1.1035 0.4229,0.6843 1.07017,4.8564 1.43837,9.2714 0.79555,9.5394 0.78895,9.5476 -10.396631,12.8801 -9.71292,2.8938 -28.91654,3.6408 -36.76985,1.4302 z m 24.92903,-58.68 c 8.36673,-2.5067 11.53713,-9.9525 6.32336,-14.8506 -5.05876,-4.7524 -17.45188,-1.8957 -22.80655,5.2572 -2.90055,3.8746 -5.67599,9.1846 -5.67599,10.8593 0,1.468 16.10522,0.5479 22.15918,-1.2659 z m -258.159183,55.6724 c 0,-1.3714 1.09623,-8.2339 2.43607,-15.25 1.33983,-7.0161 3.8453,-20.4066 5.5677,-29.7566 8.78642,-47.6967 11.17401,-60.7575 12.61362,-69 0.86456,-4.95 1.78465,-9.7875 2.04465,-10.75 0.43939,-1.6265 3.07819,-1.75 37.40535,-1.75 34.51322,0 36.93158,0.1147 36.91694,1.75 -0.0229,2.5627 -3.89248,20.4911 -4.56931,21.1706 -0.31741,0.3187 -11.00314,0.8044 -23.74606,1.0794 l -23.16896,0.5 -1.71263,9.5 c -0.94195,5.225 -2.01196,11.1875 -2.37781,13.25 l -0.66518,3.75 21.56879,0 c 11.86284,0 21.81036,0.3909 22.1056,0.8686 0.29524,0.4777 -0.3532,5.5393 -1.44098,11.248 -1.08779,5.7087 -1.97779,10.4842 -1.97779,10.6123 0,0.1281 -10.0125,0.354 -22.25,0.502 l -22.25,0.2691 -2.65431,13 c -1.45987,7.15 -2.69737,14.2375 -2.75,15.75 l -0.0957,2.75 24.5,0 c 13.475,0 24.5,0.228 24.5,0.5066 0,1.9107 -3.14725,20.9227 -3.57927,21.6217 -0.29632,0.4794 -17.61221,0.8717 -38.47975,0.8717 l -37.94098,0 z m 95,-0.3576 c 0,-2.5336 2.54724,-16.7243 15.46379,-86.149 1.89307,-10.175 4.37532,-23.675 5.51611,-30 1.14079,-6.325 2.32275,-12.7375 2.62658,-14.25 l 0.55243,-2.75 12.86153,0 c 7.07384,0 13.05932,0.3375 13.30106,0.75 0.24174,0.4125 -1.7621,12.675 -4.45298,27.25 -2.69088,14.575 -5.98158,32.575 -7.31266,40 -4.28901,23.9248 -11.61637,63.3929 -12.20296,65.7301 -0.55544,2.213 -0.89273,2.2699 -13.46131,2.2699 l -12.89159,0 z m 52.63206,2.0647 c -0.42235,-0.6834 3.83391,-25.6301 10.26779,-60.1813 1.07206,-5.7572 1.73161,-10.8197 1.46566,-11.25 -0.26595,-0.4303 -2.70699,-0.7824 -5.42453,-0.7824 -4.7467,0 -4.93722,-0.1081 -4.84524,-2.75 0.0527,-1.5125 0.84016,-6.125 1.75,-10.25 l 1.65426,-7.5 5.74342,-0.2997 c 5.32544,-0.2779 5.78676,-0.4962 6.3388,-3 3.70746,-16.8152 5.66176,-21.1896 13.01489,-29.1318 7.09037,-7.6585 14.65932,-11.1221 25.79416,-11.8039 10.13802,-0.6207 16.60873,0.8988 16.60873,3.9002 0,1.1482 -0.93501,6.0703 -2.07781,10.938 l -2.07781,8.8503 -5.73434,-0.5994 c -9.36291,-0.9786 -14.59798,2.9332 -17.55967,13.1211 -0.8527,2.9332 -1.55037,5.8263 -1.55037,6.4291 0,0.7038 2.8744,1.0961 8.03138,1.0961 6.28544,0 8.15898,0.3325 8.61833,1.5296 0.32281,0.8412 -0.19714,5.5662 -1.15545,10.5 l -1.74238,8.9704 -8.79307,0 -8.79308,0 -1.01173,4.75 c -1.04618,4.9117 -2.39861,12.1946 -8.82083,47.5 l -3.77451,20.75 -12.72031,0 c -6.99618,0 -12.93901,-0.3538 -13.20629,-0.7863 z m 150.367944,-1.6205 c 0,-1.3238 1.31352,-9.5363 2.91894,-18.25 5.95587,-32.3268 9.01905,-51.1215 9.9804,-61.2367 0.54329,-5.7165 1.38974,-10.7956 1.88101,-11.2868 0.49127,-0.4913 5.5791697,-0.7642 11.3064397,-0.6065 l 10.41321,0.2868 -0.20775,9 c -0.20229,8.7632 -0.16289,8.9342 1.49703,6.5 7.3013303,-10.7071 16.7774103,-17.0046 26.0502693,-17.3122 l 5.66045,-0.1878 -0.18649,3 c -0.10256,1.65 -1.02467,7.5 -2.04911,13 l -1.86264,10 -5.732209,0.718 c -7.64307,0.9573 -11.93431,3.1398 -16.60417,8.4451 -5.6753203,6.4475 -8.5036403,14.6869 -12.5071203,36.4355 -1.96427997,10.6708 -3.80204,20.4139 -4.08389,21.6514 -0.49914,2.1915 -0.85021,2.25 -13.4934197,2.25 l -12.98095,0 z"
         id="path3349"
         inkscape:connector-curvature="0"
         sodipodi:nodetypes="cssssssscsscssscssssssssscsccscsscssssscsscsscscssssscsssssscscssscscsssssscsssscscccsscscssscscssscsscssssscs" />
    </g>
    <text
       inkscape:export-ydpi="55.779999"
       inkscape:export-xdpi="55.779999"
       inkscape:export-filename="C:\Users\Sergio Tafoya\Dropbox\SolucionesInnova\industriaselfer\web\img\logoancho.png"
       sodipodi:linespacing="125%"
       id="text3351"
       y="1509.896"
       x="627.22272"
       style="font-style:italic;font-variant:normal;font-weight:bold;font-stretch:normal;font-size:176.8662262px;line-height:125%;font-family:Nobile;-inkscape-font-specification:'Nobile, Bold Italic';text-align:start;letter-spacing:0px;word-spacing:0px;writing-mode:lr-tb;text-anchor:start;fill:#000000;fill-opacity:1;stroke:none;stroke-width:1px;stroke-linecap:butt;stroke-linejoin:miter;stroke-opacity:1"
       xml:space="preserve"><tspan
         y="1509.896"
         x="627.22272"
         id="tspan3353"
         sodipodi:role="line">Industrias Metálicas Elfer</tspan></text>
  </g>
</svg>
